<svg width="17" height="17" viewBox="0 0 17 17" fill="none" xmlns="http://www.w3.org/2000/svg">
<g clip-path="url(#clip0_841_1833)">
<path d="M2.56878 17H14.431C15.6745 17 16.6851 15.9894 16.6851 14.7459V3.51332C16.6851 2.2698 15.6745 1.25924 14.431 1.25924H13.5369V0.629618C13.5369 0.283318 13.2536 0 12.9073 0C12.561 0 12.2776 0.283318 12.2776 0.629618V1.25924H4.72213V0.629618C4.72213 0.283318 4.43876 0 4.09246 0C3.74616 0 3.46284 0.283318 3.46284 0.629618V1.25924H2.56878C1.32526 1.25924 0.314697 2.2698 0.314697 3.51332V14.7459C0.314697 15.9894 1.32526 17 2.56878 17ZM1.57399 3.51332C1.57399 2.96556 2.02102 2.51852 2.56878 2.51852H3.46284V3.14814C3.46284 3.49444 3.74616 3.77776 4.09246 3.77776C4.43876 3.77776 4.72208 3.49444 4.72208 3.14814V2.51852H12.2776V3.14814C12.2776 3.49444 12.561 3.77776 12.9073 3.77776C13.2536 3.77776 13.5369 3.49444 13.5369 3.14814V2.51852H14.4309C14.9787 2.51852 15.4257 2.96556 15.4257 3.51332V5.35186H1.57399V3.51332ZM1.57399 6.61109H15.4258V14.7459C15.4258 15.2937 14.9788 15.7407 14.4311 15.7407H2.56878C2.02102 15.7407 1.57399 15.2937 1.57399 14.7459V6.61109Z" fill="#0F7B6C"/>
</g>
<defs>
<clipPath id="clip0_841_1833">
<rect width="17" height="17" fill="white"/>
</clipPath>
</defs>
</svg>
