<svg width="17" height="17" viewBox="0 0 17 17" fill="none" xmlns="http://www.w3.org/2000/svg">
<g clip-path="url(#clip0_2864_8653)">
<path d="M3.80496 16.6587C3.61871 16.6587 3.43375 16.6006 3.2759 16.4864C2.98187 16.2733 2.84451 15.907 2.92454 15.5536L4.01819 10.736L0.309205 7.48335C0.0365693 7.24534 -0.0675823 6.86842 0.0443515 6.52354C0.156285 6.17931 0.460828 5.9356 0.821402 5.90227L5.72885 5.45674L7.66907 0.916221C7.81214 0.582624 8.13795 0.367188 8.49995 0.367188C8.86195 0.367188 9.18777 0.582624 9.33083 0.915442L11.2711 5.45674L16.1777 5.90227C16.5391 5.93482 16.8436 6.17931 16.9556 6.52354C17.0675 6.86777 16.964 7.24534 16.6913 7.48335L12.9824 10.7354L14.076 15.5528C14.1562 15.907 14.0187 16.2733 13.7248 16.4858C13.4315 16.6982 13.0405 16.7146 12.7316 16.529L8.49995 14.0001L4.26826 16.5304C4.1252 16.6153 3.96579 16.6587 3.80496 16.6587ZM8.49995 12.9108C8.66078 12.9108 8.82006 12.954 8.96325 13.0389L12.9569 15.4275L11.9248 10.8805C11.8511 10.5569 11.9609 10.219 12.211 10.0001L15.7131 6.92874L11.0797 6.50798C10.7461 6.4775 10.4592 6.26777 10.3289 5.96037L8.49995 1.6755L6.6688 5.96102C6.53988 6.26634 6.25298 6.47607 5.92016 6.50655L1.28613 6.92731L4.78811 9.99868C5.03896 10.2183 5.14868 10.5555 5.07437 10.8799L4.04297 15.4267L8.03665 13.0389C8.17972 12.954 8.33912 12.9108 8.49995 12.9108ZM5.69136 5.54454C5.69136 5.54454 5.69136 5.54532 5.69058 5.54597L5.69136 5.54454ZM11.3071 5.54247L11.3079 5.5439C11.3079 5.54312 11.3079 5.54312 11.3071 5.54247Z" fill="#0F7B6C"/>
</g>
<defs>
<clipPath id="clip0_2864_8653">
<rect width="17" height="17" fill="white"/>
</clipPath>
</defs>
</svg>
