<svg width="17" height="17" viewBox="0 0 17 17" fill="none" xmlns="http://www.w3.org/2000/svg">
<g clip-path="url(#clip0_2864_8611)">
<path d="M14.8267 4.1302L10.8425 0.145928C10.7495 0.0528926 10.6225 0 10.4902 0H3.51758C2.69371 0 2.02344 0.670272 2.02344 1.49414V15.5059C2.02344 16.3297 2.69371 17 3.51758 17H13.4785C14.3024 17 14.9727 16.3297 14.9727 15.5059V4.48242C14.9727 4.34662 14.9156 4.21909 14.8267 4.1302ZM10.9883 1.70043L13.2722 3.98438H11.4863C11.2117 3.98438 10.9883 3.76095 10.9883 3.48633V1.70043ZM13.4785 16.0039H3.51758C3.24296 16.0039 3.01953 15.7805 3.01953 15.5059V1.49414C3.01953 1.21952 3.24296 0.996094 3.51758 0.996094H9.99219V3.48633C9.99219 4.3102 10.6625 4.98047 11.4863 4.98047H13.9766V15.5059C13.9766 15.7805 13.7531 16.0039 13.4785 16.0039Z" fill="#0F7B6C"/>
</g>
<defs>
<clipPath id="clip0_2864_8611">
<rect width="17" height="17" fill="white"/>
</clipPath>
</defs>
</svg>
