<svg width="17" height="17" viewBox="0 0 17 17" fill="none" xmlns="http://www.w3.org/2000/svg">
<path d="M6.7566 7.13672C6.59722 7.13672 6.43951 7.13672 6.28179 7.1168C6.32662 7.12344 6.36978 7.12842 6.4146 7.13506C6.22203 7.10684 6.03443 7.05537 5.85347 6.98066L5.973 7.03047C5.84517 6.97568 5.72232 6.90928 5.60611 6.83125C5.57955 6.81299 5.55298 6.79307 5.52476 6.77481C5.45503 6.725 5.55464 6.80469 5.5646 6.80635C5.55298 6.80469 5.5314 6.77979 5.52144 6.77148C5.46832 6.72666 5.41685 6.68018 5.36871 6.63203C5.32222 6.58555 5.2774 6.5374 5.23589 6.4876C5.22427 6.47432 5.21265 6.45937 5.20103 6.44443C5.16285 6.40127 5.2774 6.54736 5.23257 6.48428C5.21265 6.45772 5.19439 6.43115 5.17613 6.40459C5.09644 6.28672 5.02837 6.16055 4.97027 6.02773C4.98687 6.06758 5.00347 6.10742 5.02007 6.14727C4.94537 5.96797 4.89224 5.78037 4.86568 5.58613C4.87232 5.63096 4.8773 5.67412 4.88394 5.71895C4.85572 5.4998 4.86402 5.27568 4.86402 5.05488C4.86402 4.79756 4.86402 4.54189 4.86402 4.28457C4.86402 4.1584 4.86734 4.03223 4.88394 3.90771C4.8773 3.95254 4.87232 3.9957 4.86568 4.04053C4.8939 3.84795 4.94537 3.66035 5.02007 3.47939C5.00347 3.51924 4.98687 3.55908 4.97027 3.59893C5.02505 3.47109 5.09146 3.34824 5.16949 3.23203C5.18775 3.20547 5.20767 3.17891 5.22593 3.15068C5.27574 3.08096 5.19605 3.18057 5.19439 3.19053C5.19605 3.17891 5.22095 3.15732 5.22925 3.14736C5.27408 3.09424 5.32056 3.04277 5.36871 2.99463C5.41519 2.94814 5.46334 2.90332 5.51314 2.86182C5.52642 2.8502 5.54136 2.83857 5.5563 2.82695C5.59947 2.78877 5.45337 2.90332 5.51646 2.8585C5.54302 2.83857 5.56959 2.82031 5.59615 2.80205C5.71402 2.72236 5.84019 2.6543 5.973 2.59619C5.93316 2.61279 5.89332 2.62939 5.85347 2.646C6.03277 2.57129 6.22037 2.51816 6.4146 2.4916C6.36978 2.49824 6.32662 2.50322 6.28179 2.50986C6.53414 2.47666 6.80474 2.47666 7.05709 2.50986C7.01226 2.50322 6.9691 2.49824 6.92427 2.4916C7.11685 2.51982 7.30445 2.57129 7.48541 2.646C7.44556 2.62939 7.40572 2.61279 7.36587 2.59619C7.49371 2.65098 7.61656 2.71738 7.73277 2.79541C7.75933 2.81367 7.78589 2.83359 7.81412 2.85186C7.88384 2.90166 7.78423 2.82197 7.77427 2.82031C7.78589 2.82197 7.80748 2.84688 7.81744 2.85518C7.87056 2.9 7.92203 2.94648 7.97017 2.99463C8.01666 3.04111 8.06148 3.08926 8.10298 3.13906C8.11461 3.15234 8.12623 3.16729 8.13785 3.18223C8.17603 3.22539 8.06148 3.0793 8.1063 3.14238C8.12623 3.16895 8.14449 3.19551 8.16275 3.22207C8.24244 3.33994 8.3105 3.46611 8.36861 3.59893C8.35201 3.55908 8.33541 3.51924 8.3188 3.47939C8.39351 3.65869 8.44664 3.84629 8.4732 4.04053C8.46656 3.9957 8.46158 3.95254 8.45494 3.90771C8.48316 4.12686 8.47486 4.35098 8.47486 4.57178V5.34209C8.47486 5.46826 8.47154 5.59443 8.45494 5.71895C8.46158 5.67412 8.46656 5.63096 8.4732 5.58613C8.44498 5.77871 8.39351 5.96631 8.3188 6.14727C8.33541 6.10742 8.35201 6.06758 8.36861 6.02773C8.31382 6.15557 8.24742 6.27842 8.16939 6.39463C8.15113 6.42119 8.13121 6.44775 8.11294 6.47598C8.06314 6.5457 8.14283 6.44609 8.14449 6.43613C8.14283 6.44775 8.11793 6.46934 8.10962 6.4793C8.0648 6.53242 8.01832 6.58389 7.97017 6.63203C7.92369 6.67852 7.87554 6.72334 7.82574 6.76484C7.81246 6.77646 7.79752 6.78809 7.78257 6.79971C7.73941 6.83789 7.8855 6.72334 7.82242 6.76816C7.79585 6.78809 7.76929 6.80635 7.74273 6.82461C7.62486 6.9043 7.49869 6.97236 7.36587 7.03047L7.48541 6.98066C7.30611 7.05537 7.11851 7.1085 6.92427 7.13506C6.9691 7.12842 7.01226 7.12344 7.05709 7.1168C6.95748 7.13008 6.85787 7.13672 6.7566 7.13672C6.49595 7.13838 6.24693 7.36416 6.25855 7.63477C6.27017 7.90371 6.47769 8.13447 6.7566 8.13281C7.51695 8.12949 8.27564 7.80078 8.77867 7.22471C9.23355 6.70342 9.47095 6.05762 9.47095 5.36533C9.47095 4.98516 9.47095 4.60498 9.47095 4.2248C9.46929 3.50928 9.19039 2.81699 8.68902 2.304C8.16939 1.77607 7.45386 1.49219 6.71675 1.49219C6.38472 1.49219 6.05103 1.52041 5.73394 1.62998C5.35875 1.75947 5.01841 1.95869 4.72789 2.2293C4.18169 2.73564 3.87125 3.46777 3.86793 4.20986C3.86627 4.58174 3.86793 4.95195 3.86793 5.32383C3.86793 5.58281 3.88951 5.84346 3.95425 6.0958C4.05386 6.48262 4.24312 6.82959 4.49048 7.1417C4.96363 7.73438 5.69078 8.08301 6.44283 8.12949C6.54742 8.13613 6.65367 8.13447 6.75826 8.13447C7.0189 8.13447 7.26793 7.90537 7.2563 7.63643C7.24302 7.36416 7.0355 7.13672 6.7566 7.13672Z" fill="#0F7B6C"/>
<path d="M10.9356 12.0067V13.0177V14.6331V15.0066C11.1016 14.8406 11.2676 14.6746 11.4336 14.5086C11.1182 14.5086 10.8028 14.5086 10.4874 14.5086C9.72866 14.5086 8.97163 14.5086 8.21294 14.5086C7.29487 14.5086 6.37846 14.5086 5.4604 14.5086C4.66684 14.5086 3.87329 14.5086 3.07973 14.5086C2.69458 14.5086 2.3061 14.4986 1.92094 14.5086C1.91596 14.5086 1.90932 14.5086 1.90434 14.5086C2.07036 14.6746 2.23637 14.8406 2.40239 15.0066C2.40239 14.643 2.40239 14.2794 2.40239 13.9159C2.40239 13.3697 2.40239 12.8252 2.40239 12.279C2.40239 12.0963 2.39741 11.9137 2.42065 11.7311C2.41401 11.7759 2.40903 11.8191 2.40239 11.8639C2.42729 11.678 2.4771 11.4987 2.54682 11.3244C2.53022 11.3642 2.51362 11.4041 2.49702 11.4439C2.5518 11.3161 2.61655 11.1932 2.69458 11.077C2.7145 11.0471 2.73608 11.0172 2.75766 10.9874C2.80249 10.9243 2.68794 11.072 2.72612 11.0272C2.73774 11.0139 2.74936 10.999 2.76098 10.984C2.80581 10.9309 2.85229 10.8794 2.9021 10.8313C2.9519 10.7832 3.00337 10.7367 3.05649 10.6919C3.06811 10.6819 3.07973 10.6736 3.09135 10.6636C2.97514 10.7632 3.02163 10.7168 3.05151 10.6952C3.08139 10.6736 3.11128 10.652 3.14116 10.6321C3.26069 10.5524 3.38852 10.486 3.52134 10.4295C3.48149 10.4461 3.44165 10.4627 3.4018 10.4794C3.58276 10.4046 3.77202 10.3532 3.96626 10.3266C3.92143 10.3333 3.87827 10.3382 3.83344 10.3449C4.07583 10.3133 4.32485 10.325 4.56889 10.325H5.82397H8.69272C8.97329 10.325 9.26216 10.3084 9.5394 10.3449C9.49458 10.3382 9.45141 10.3333 9.40659 10.3266C9.59917 10.3532 9.7851 10.4046 9.9644 10.4794C9.92456 10.4627 9.88471 10.4461 9.84487 10.4295C9.9727 10.4843 10.0939 10.5491 10.2101 10.6271C10.2367 10.6454 10.2632 10.6636 10.2898 10.6835C10.3612 10.735 10.2566 10.6503 10.2499 10.652C10.2599 10.652 10.2848 10.6802 10.2915 10.6869C10.3446 10.73 10.3944 10.7765 10.4442 10.8247C10.4907 10.8711 10.5338 10.9193 10.5753 10.9691C10.587 10.9824 10.5986 10.9973 10.6102 11.0106C10.6484 11.0554 10.5338 10.9077 10.5787 10.9708C10.5969 10.9973 10.6168 11.0239 10.6351 11.0504C10.7148 11.1683 10.7812 11.2945 10.836 11.424C10.8194 11.3841 10.8028 11.3443 10.7862 11.3044C10.8576 11.4771 10.9057 11.6564 10.9323 11.8407C10.9256 11.7959 10.9207 11.7527 10.914 11.7079C10.929 11.8075 10.9356 11.9071 10.9356 12.0067C10.9373 12.2673 11.163 12.5164 11.4336 12.5047C11.7026 12.4931 11.9333 12.2856 11.9317 12.0067C11.9267 11.0886 11.4502 10.237 10.6783 9.74224C10.2035 9.43843 9.66059 9.32886 9.1061 9.32886C8.73921 9.32886 8.37231 9.32886 8.00542 9.32886C7.45259 9.32886 6.90141 9.32886 6.34858 9.32886C5.84389 9.32886 5.33921 9.32886 4.83452 9.32886C4.6021 9.32886 4.36801 9.3272 4.13559 9.32886C3.70229 9.33052 3.28559 9.43511 2.89712 9.62437C2.49204 9.82193 2.15669 10.1307 1.89106 10.4926C1.6188 10.8628 1.47436 11.3011 1.42124 11.7544C1.40464 11.8988 1.4063 12.0432 1.4063 12.1877V13.632V14.9369V15.0083C1.4063 15.2772 1.63374 15.5063 1.90434 15.5063H2.85063H5.12505H7.87759H10.2582C10.6451 15.5063 11.0319 15.5129 11.417 15.5063H11.4336C11.7026 15.5063 11.9317 15.2789 11.9317 15.0083C11.9317 14.6712 11.9317 14.3342 11.9317 13.9972C11.9317 13.4593 11.9317 12.9214 11.9317 12.3819C11.9317 12.2574 11.9317 12.1329 11.9317 12.0084C11.9317 11.7477 11.7026 11.4987 11.4336 11.5103C11.1647 11.5203 10.9356 11.7278 10.9356 12.0067Z" fill="#0F7B6C"/>
<path d="M15.5243 6.0625C15.0047 6.0625 14.4834 6.0625 13.9638 6.0625C13.1337 6.0625 12.3036 6.0625 11.4735 6.0625C11.2826 6.0625 11.0917 6.0625 10.9008 6.0625C10.6401 6.0625 10.3911 6.2916 10.4027 6.56055C10.4144 6.83115 10.6219 7.05859 10.9008 7.05859H12.4613H14.9516H15.5243C15.785 7.05859 16.034 6.82949 16.0224 6.56055C16.0107 6.28994 15.8049 6.0625 15.5243 6.0625Z" fill="#0F7B6C"/>
<path d="M12.7148 4.24844V5.81065V8.30088V8.87529C12.7148 9.13594 12.9439 9.38496 13.2129 9.37334C13.4835 9.36172 13.7109 9.1542 13.7109 8.87529C13.7109 8.354 13.7109 7.83438 13.7109 7.31309C13.7109 6.48301 13.7109 5.65293 13.7109 4.82285C13.7109 4.63193 13.7109 4.44102 13.7109 4.24844C13.7109 3.98779 13.4818 3.73877 13.2129 3.75039C12.9423 3.76201 12.7148 3.96953 12.7148 4.24844Z" fill="#0F7B6C"/>
</svg>
