<svg width="17" height="17" viewBox="0 0 17 17" fill="none" xmlns="http://www.w3.org/2000/svg">
<path d="M8.96801 14.4598H4.00986C4.21339 14.1277 4.32978 13.713 4.32978 13.322V4.0297C4.32978 3.20842 4.99369 2.54018 5.80954 2.54018H12.4888C13.3041 2.54018 13.968 3.20842 13.968 4.0297V7.44884C13.968 7.73589 14.1991 7.96865 14.484 7.96865C14.7689 7.96865 15 7.73589 15 7.44884V4.0297C15 2.6349 13.8734 1.5 12.4888 1.5H5.80897C4.4238 1.5 3.29779 2.6349 3.29779 4.0297V9.23639H2.51175C1.12659 9.23639 0 10.3719 0 11.7672V13.3203C0 14.5141 0.959179 15.4856 2.14425 15.4965C2.15056 15.4965 2.15629 15.5 2.1626 15.5H8.96801C9.25295 15.5 9.484 15.2672 9.484 14.9802C9.484 14.6932 9.25295 14.4598 8.96801 14.4598ZM1.03199 13.3203V11.7672C1.03199 10.9448 1.69591 10.2766 2.51175 10.2766H3.29779V13.3105C3.29779 13.3134 3.29607 13.3157 3.29607 13.3191C3.29607 13.9481 2.7881 14.4592 2.1626 14.4592C1.53939 14.4581 1.03199 13.9481 1.03199 13.3203Z" fill="#0F7B6C"/>
<path d="M11.5331 5.5H6.46689C6.20906 5.5 6 5.72389 6 6C6 6.27611 6.20906 6.5 6.46689 6.5H11.5331C11.7909 6.5 12 6.27611 12 6C12 5.72389 11.7909 5.5 11.5331 5.5Z" fill="#0F7B6C"/>
<path d="M11.5331 7.5H6.46689C6.20906 7.5 6 7.94778 6 8.5C6 9.05222 6.20906 9.5 6.46689 9.5H11.5331C11.7909 9.5 12 9.05222 12 8.5C12 7.94778 11.7909 7.5 11.5331 7.5Z" fill="#0F7B6C"/>
<path d="M9.46132 10.5H6.53868C6.24121 10.5 6 10.7239 6 11C6 11.2761 6.24121 11.5 6.53868 11.5H9.46132C9.75879 11.5 10 11.2761 10 11C10 10.7239 9.75879 10.5 9.46132 10.5Z" fill="#0F7B6C"/>
<path d="M16.5193 8.98082C16.5193 8.98022 16.5193 8.98022 16.5193 8.98082C15.8778 8.33983 14.8349 8.33983 14.1946 8.98022L10.4764 12.6982C10.3388 12.8364 10.2495 13.0115 10.2169 13.2028L10.0129 14.4087C9.9628 14.7069 10.0606 15.0123 10.2742 15.226C10.4504 15.4028 10.69 15.5 10.9363 15.5C10.9876 15.5 11.0395 15.4952 11.0914 15.4873L12.2966 15.2833C12.4897 15.2507 12.6647 15.1608 12.8023 15.0226L16.5193 11.3052C17.1602 10.6648 17.1602 9.62121 16.5193 8.98082ZM12.069 14.2198L11.1197 14.3804L11.2803 13.4316L13.8228 10.8893L14.6116 11.6782L12.069 14.2198ZM15.751 10.5374L15.3787 10.9098L14.5899 10.121L14.9623 9.74856C15.1795 9.53128 15.5332 9.53007 15.751 9.74856C15.9683 9.96645 15.9683 10.3201 15.751 10.5374Z" fill="#0F7B6C"/>
</svg>
