<svg width="17" height="17" viewBox="0 0 17 17" fill="none" xmlns="http://www.w3.org/2000/svg">
<g clip-path="url(#clip0_866_1599)">
<path d="M11.0234 0C8.42622 0 6.21101 1.66547 5.38873 3.98438H1.99219C1.62543 3.98438 1.32812 4.28168 1.32812 4.64844C1.32812 5.0152 1.62543 5.3125 1.99219 5.3125H5.08396C5.05972 5.53061 5.04688 5.75211 5.04688 5.97656C5.04688 6.20009 5.05949 6.42162 5.08356 6.64062H0.664062C0.297301 6.64062 0 6.93793 0 7.30469C0 7.67145 0.297301 7.96875 0.664062 7.96875H5.38565C5.60638 8.59489 5.93217 9.18149 6.35375 9.7071L5.24118 10.8197C4.9811 10.695 4.68997 10.625 4.38281 10.625C3.85067 10.625 3.35036 10.8322 2.97414 11.2085L0.583512 13.5991C0.207221 13.9754 0 14.4757 0 15.0078C0 16.1063 0.893695 17 1.99219 17C2.5243 17 3.02461 16.7928 3.40086 16.4165L5.79149 14.0259C6.16778 13.6496 6.375 13.1493 6.375 12.6172C6.375 12.31 6.30501 12.0189 6.1803 11.7588L7.73649 10.2026C7.99584 9.94327 7.99584 9.52282 7.73649 9.26351C6.8585 8.38552 6.375 7.21819 6.375 5.97656C6.375 3.41341 8.46029 1.32812 11.0234 1.32812C13.5866 1.32812 15.6719 3.41341 15.6719 5.97656C15.6719 8.53971 13.5866 10.625 11.0234 10.625C10.6146 10.625 10.2093 10.572 9.81866 10.4675C9.46442 10.3728 9.10035 10.5831 9.00555 10.9374C8.91079 11.2917 9.12116 11.6558 9.47547 11.7505C9.978 11.885 10.4988 11.9531 11.0234 11.9531C14.3189 11.9531 17 9.27204 17 5.97656C17 2.68109 14.3189 0 11.0234 0ZM4.85237 13.0867L2.46175 15.4774C2.3363 15.6028 2.16956 15.6719 1.99219 15.6719C1.62602 15.6719 1.32812 15.374 1.32812 15.0078C1.32812 14.8304 1.39719 14.6637 1.52263 14.5383L3.91325 12.1476C4.03866 12.0222 4.20544 11.9531 4.38281 11.9531C4.74898 11.9531 5.04688 12.251 5.04688 12.6172C5.04688 12.7946 4.97778 12.9613 4.85237 13.0867Z" fill="#0F7B6C"/>
<path d="M13.9885 7.30469C13.9885 6.93793 13.6912 6.64062 13.3244 6.64062H8.72266C8.35589 6.64062 8.05859 6.93793 8.05859 7.30469C8.05859 7.67145 8.35589 7.96875 8.72266 7.96875H13.3244C13.6912 7.96875 13.9885 7.67145 13.9885 7.30469Z" fill="#0F7B6C"/>
<path d="M12.3516 5.3125H9.69531C9.32855 5.3125 9.03125 5.0152 9.03125 4.64844C9.03125 4.28168 9.32855 3.98438 9.69531 3.98438H12.3516C12.7183 3.98438 13.0156 4.28168 13.0156 4.64844C13.0156 5.0152 12.7183 5.3125 12.3516 5.3125Z" fill="#0F7B6C"/>
</g>
<defs>
<clipPath id="clip0_866_1599">
<rect width="17" height="17" fill="white"/>
</clipPath>
</defs>
</svg>
