<svg width="17" height="17" viewBox="0 0 17 17" fill="none" xmlns="http://www.w3.org/2000/svg">
<g clip-path="url(#clip0_866_1580)">
<path d="M14.8287 4.1302L10.8444 0.145928C10.7514 0.0528926 10.6245 0 10.4922 0H3.51953C2.69566 0 2.02539 0.670271 2.02539 1.49414V15.5059C2.02539 16.3297 2.69566 17 3.51953 17H13.4805C14.3043 17 14.9746 16.3297 14.9746 15.5059V4.48242C14.9746 4.34662 14.9176 4.21909 14.8287 4.1302ZM10.9902 1.70043L13.2742 3.98438H11.4883C11.2137 3.98438 10.9902 3.76095 10.9902 3.48633V1.70043ZM13.4805 16.0039H3.51953C3.24491 16.0039 3.02148 15.7805 3.02148 15.5059V1.49414C3.02148 1.21952 3.24491 0.996094 3.51953 0.996094H9.99414V3.48633C9.99414 4.3102 10.6644 4.98047 11.4883 4.98047H13.9785V15.5059C13.9785 15.7805 13.7551 16.0039 13.4805 16.0039Z" fill="#0F7B6C"/>
</g>
<defs>
<clipPath id="clip0_866_1580">
<rect width="17" height="17" fill="white"/>
</clipPath>
</defs>
</svg>
