<svg width="18" height="18" viewBox="0 0 18 18" fill="none" xmlns="http://www.w3.org/2000/svg">
<g clip-path="url(#clip0_2864_8910)">
<path fill-rule="evenodd" clip-rule="evenodd" d="M9 0C4.03594 0 0 4.03594 0 9C0 13.9641 4.03594 18 9 18C13.9641 18 18 13.9641 18 9C18 4.03594 13.9641 0 9 0Z" fill="white"/>
<path fill-rule="evenodd" clip-rule="evenodd" d="M13.3525 5.96299C13.5705 6.18096 13.5705 6.53955 13.3525 6.75752L8.0791 12.031C7.97012 12.1399 7.82598 12.1962 7.68184 12.1962C7.5377 12.1962 7.39355 12.1399 7.28457 12.031L4.64785 9.39424C4.42988 9.17627 4.42988 8.81768 4.64785 8.59971C4.86582 8.38174 5.22441 8.38174 5.44238 8.59971L7.68184 10.8392L12.558 5.96299C12.776 5.7415 13.1346 5.7415 13.3525 5.96299Z" fill="#0F7B6C"/>
</g>
<defs>
<clipPath id="clip0_2864_8910">
<rect width="18" height="18" fill="white"/>
</clipPath>
</defs>
</svg>
