<svg width="20" height="17" viewBox="0 0 20 17" fill="none" xmlns="http://www.w3.org/2000/svg">
<g clip-path="url(#clip0_392_147)">
<path d="M18.7936 11.5275H19.8808L18.4591 9.98466C16.4242 7.77235 13.6087 6.52063 10.6539 6.52063H10.3194H9.59462H9.23223C6.30526 6.52063 3.4898 7.77235 1.42698 9.98466L0.00531006 11.5275H1.09247C4.01944 11.5275 6.83489 10.2758 8.89771 8.06343L9.95701 6.92816C9.34373 10.8288 4.01944 17 4.01944 17H9.98487H15.9503C15.9503 17 10.6818 10.9162 10.0128 7.0155L10.9884 8.09254C13.0233 10.2758 15.8388 11.5275 18.7936 11.5275Z" fill="#0B1F3B"/>
<path d="M9.06475 4.24992L9.92891 3.31842L10.7931 4.24992C12.4656 6.08382 14.8072 7.10267 17.2324 7.10267H18.1244L16.9536 5.82186C15.2811 3.98796 12.9395 2.96912 10.5143 2.96912H10.2355H9.62227H9.34352C6.91832 2.96912 4.60461 3.98796 2.90418 5.82186L1.7334 7.13178H2.62543C5.05064 7.13178 7.3922 6.08382 9.06475 4.24992Z" fill="#0B1F3B"/>
<path d="M9.23228 1.04794L9.92919 0.291094L10.6261 1.04794C11.992 2.53253 13.8875 3.3767 15.8668 3.3767H16.5915L15.6437 2.32876C14.2778 0.844175 12.3823 0 10.4031 0H10.1801H9.6783H9.4553C7.47612 0 5.58055 0.844175 4.21464 2.32876L3.26685 3.3767H3.99162C5.9708 3.3767 7.86637 2.53253 9.23228 1.04794Z" fill="#0B1F3B"/>
</g>
<defs>
<clipPath id="clip0_392_147">
<rect width="20" height="17" fill="white"/>
</clipPath>
</defs>
</svg>
