<svg width="75" height="75" viewBox="0 0 75 75" fill="none" xmlns="http://www.w3.org/2000/svg">
<path d="M58.1455 16.6277C56.5981 14.7694 54.7146 18.6543 54.112 19.8733C51.0397 26.0815 49.1151 32.8793 46.1685 39.1836C44.7792 42.1574 42.689 46.1259 39.7785 47.7711C37.2713 49.1883 34.8213 47.5256 33.2204 45.5538C28.348 39.5512 25.7026 26.9839 21.6256 19.1778C21.1102 18.1919 20.5438 17.226 19.7284 16.4744C19.0985 15.8923 18.2358 16.0905 17.7341 16.7287C16.9025 17.7844 16.2664 18.9024 15.6775 20.1425C14.0804 23.5078 12.762 26.8892 11.4761 30.3866C10.6818 32.5478 10.0084 34.6131 9 36.8279C9.02863 34.3152 9.58883 32.0318 10.1241 29.6475C11.0964 25.325 13.692 16.0569 16.7357 13.0107C18.0266 11.7182 19.8243 11.7132 21.1837 12.8861C23.9087 15.238 25.9926 20.479 27.2475 23.8892L30.8626 33.7194C31.9619 36.7095 34.1068 41.862 36.5107 43.85C37.4642 44.639 38.5896 44.5193 39.4386 43.6618C42.2321 40.8412 44.3982 35.1802 45.8498 31.4074L48.6844 24.04C49.6915 21.4226 50.7521 18.9335 52.1202 16.4956C52.9356 15.0423 53.9017 13.7436 55.1739 12.7078C56.4462 11.6721 58.1019 11.793 59.2235 12.9397C60.3452 14.0863 61.0884 15.5184 61.7569 17.0228C62.881 19.5567 63.725 22.0844 64.4782 24.7641C65.3023 27.6981 66.0542 30.5586 66.5086 33.5798C66.6742 34.6791 67.0551 35.6912 66.7339 36.7868L63.6304 28.3126C62.4864 25.1891 60.1647 19.0507 58.1467 16.6265L58.1455 16.6277Z" fill="#F5F7FA"/>
<path d="M37.2588 62.0096C38.7796 62.0096 40.0125 60.7752 40.0125 59.2525C40.0125 57.7299 38.7796 56.4955 37.2588 56.4955C35.738 56.4955 34.5051 57.7299 34.5051 59.2525C34.5051 60.7752 35.738 62.0096 37.2588 62.0096Z" fill="#F5F7FA"/>
<path d="M28.1302 61.9983C29.6463 61.9983 30.8752 60.7679 30.8752 59.25C30.8752 57.7322 29.6463 56.5018 28.1302 56.5018C26.6142 56.5018 25.3853 57.7322 25.3853 59.25C25.3853 60.7679 26.6142 61.9983 28.1302 61.9983Z" fill="#F5F7FA"/>
<path d="M46.2957 61.9921C47.8069 61.9921 49.032 60.7656 49.032 59.2525C49.032 57.7395 47.8069 56.513 46.2957 56.513C44.7845 56.513 43.5595 57.7395 43.5595 59.2525C43.5595 60.7656 44.7845 61.9921 46.2957 61.9921Z" fill="#F5F7FA"/>
</svg>
