<svg width="172" height="50" viewBox="0 0 172 50" fill="none" xmlns="http://www.w3.org/2000/svg">
<path d="M49.1455 4.62771C47.5981 2.76935 45.7146 6.65434 45.112 7.8733C42.0397 14.0815 40.1151 20.8793 37.1684 27.1835C35.7792 30.1574 33.689 34.1259 30.7785 35.7711C28.2713 37.1883 25.8213 35.5256 24.2204 33.5538C19.348 27.5512 16.7026 14.9839 12.6256 7.17782C12.1102 6.19193 11.5438 5.22598 10.7284 4.47441C10.0985 3.89235 9.23578 4.09052 8.73409 4.72867C7.90251 5.78436 7.26638 6.90237 6.67755 8.14252C5.08036 11.5078 3.76203 14.8892 2.47607 18.3866C1.68184 20.5478 1.00835 22.6131 0 24.8279C0.0286323 22.3152 0.588829 20.0318 1.12413 17.6475C2.09638 13.325 4.69196 4.05687 7.7357 1.0107C9.02664 -0.2818 10.8243 -0.286786 12.1837 0.886063C14.9087 3.23799 16.9926 8.47904 18.2475 11.8892L21.8626 21.7194C22.9619 24.7095 25.1068 29.862 27.5107 31.85C28.4642 32.639 29.5896 32.5193 30.4386 31.6618C33.2321 28.8412 35.3982 23.1802 36.8498 19.4074L39.6844 12.04C40.6915 9.42256 41.7521 6.93353 43.1202 4.4956C43.9356 3.04231 44.9017 1.74358 46.1739 0.70783C47.4462 -0.327916 49.1019 -0.207017 50.2235 0.939658C51.3452 2.08633 52.0884 3.51843 52.7569 5.02282C53.881 7.55672 54.725 10.0844 55.4782 12.7641C56.3023 15.6981 57.0542 18.5586 57.5086 21.5798C57.6742 22.6791 58.0551 23.6912 57.7339 24.7868L54.6304 16.3126C53.4864 13.1891 51.1647 7.05069 49.1467 4.62647L49.1455 4.62771Z" fill="#F5F7FA"/>
<path d="M28.2588 50.0096C29.7796 50.0096 31.0125 48.7752 31.0125 47.2526C31.0125 45.7299 29.7796 44.4955 28.2588 44.4955C26.738 44.4955 25.5051 45.7299 25.5051 47.2526C25.5051 48.7752 26.738 50.0096 28.2588 50.0096Z" fill="#F5F7FA"/>
<path d="M19.1302 49.9983C20.6463 49.9983 21.8752 48.7679 21.8752 47.2501C21.8752 45.7322 20.6463 44.5018 19.1302 44.5018C17.6142 44.5018 16.3853 45.7322 16.3853 47.2501C16.3853 48.7679 17.6142 49.9983 19.1302 49.9983Z" fill="#F5F7FA"/>
<path d="M37.2957 49.9921C38.8069 49.9921 40.032 48.7655 40.032 47.2525C40.032 45.7395 38.8069 44.513 37.2957 44.513C35.7845 44.513 34.5595 45.7395 34.5595 47.2525C34.5595 48.7655 35.7845 49.9921 37.2957 49.9921Z" fill="#F5F7FA"/>
<line opacity="0.2" x1="69.3587" y1="0.00477979" x2="69.3587" y2="50.0048" stroke="#F5F7FA"/>
<path d="M153.707 26.6513V3.13152H170.713V5.90705H156.82V13.1106H169.831V15.8701H156.82V23.8758H171.259V26.6513H153.707Z" fill="#F5F7FA"/>
<path d="M126.176 26.6513V3.13152H130.861L136.428 19.7847C136.942 21.3356 137.316 22.4961 137.551 23.2661C137.819 22.4105 138.236 21.1537 138.803 19.4959L144.434 3.13152H148.621V26.6513H145.621V6.96592L138.787 26.6513H135.979L129.177 6.629V26.6513H126.176Z" fill="#F5F7FA"/>
<path d="M104.357 26.6513V3.13152H113.229C114.791 3.13152 115.983 3.20639 116.807 3.35612C117.962 3.54865 118.93 3.91765 119.711 4.46313C120.492 4.99791 121.117 5.75196 121.588 6.72527C122.069 7.69857 122.31 8.76814 122.31 9.93397C122.31 11.9341 121.673 13.6293 120.401 15.0198C119.128 16.3995 116.828 17.0894 113.502 17.0894H107.47V26.6513H104.357ZM107.47 14.3139H113.55C115.561 14.3139 116.989 13.9395 117.834 13.1908C118.679 12.4421 119.101 11.3886 119.101 10.0302C119.101 9.04623 118.85 8.20662 118.347 7.5114C117.855 6.80548 117.203 6.34022 116.39 6.11561C115.866 5.97657 114.898 5.90705 113.486 5.90705H107.47V14.3139Z" fill="#F5F7FA"/>
<path d="M79.8587 26.6513L88.8912 3.13152H92.2443L101.87 26.6513H98.3248L95.5814 19.528H85.7467L83.1637 26.6513H79.8587ZM86.6451 16.9931H94.6187L92.1641 10.4795C91.4154 8.50075 90.8592 6.87501 90.4956 5.60222C90.1961 7.11031 89.7736 8.60771 89.2281 10.0944L86.6451 16.9931Z" fill="#F5F7FA"/>
<path d="M119.551 36.613L117.928 36.7399C117.783 36.0991 117.577 35.6336 117.311 35.3434C116.87 34.8779 116.326 34.6452 115.679 34.6452C115.159 34.6452 114.703 34.7903 114.31 35.0805C113.796 35.4553 113.391 36.0024 113.095 36.7218C112.798 37.4412 112.644 38.4659 112.632 39.7959C113.025 39.1974 113.506 38.753 114.074 38.4629C114.642 38.1727 115.238 38.0276 115.86 38.0276C116.949 38.0276 117.874 38.4296 118.635 39.2336C119.403 40.0316 119.787 41.0654 119.787 42.3349C119.787 43.1692 119.606 43.946 119.243 44.6654C118.886 45.3788 118.393 45.9259 117.765 46.3067C117.136 46.6876 116.423 46.878 115.625 46.878C114.264 46.878 113.155 46.3793 112.297 45.3818C111.438 44.3783 111.009 42.7279 111.009 40.4306C111.009 37.8613 111.484 35.9933 112.433 34.8266C113.261 33.8109 114.376 33.3031 115.779 33.3031C116.825 33.3031 117.68 33.5963 118.345 34.1827C119.016 34.7691 119.418 35.5792 119.551 36.613ZM112.886 42.344C112.886 42.9062 113.004 43.4443 113.24 43.9581C113.482 44.472 113.817 44.8649 114.246 45.137C114.676 45.403 115.126 45.536 115.597 45.536C116.287 45.536 116.879 45.2579 117.375 44.7017C117.871 44.1455 118.118 43.3898 118.118 42.4347C118.118 41.5158 117.874 40.7934 117.384 40.2674C116.894 39.7354 116.278 39.4694 115.534 39.4694C114.796 39.4694 114.171 39.7354 113.657 40.2674C113.143 40.7934 112.886 41.4855 112.886 42.344Z" fill="#F5F7FA"/>
<path d="M109.322 45.0826V46.6513H100.535C100.523 46.2584 100.587 45.8805 100.726 45.5178C100.949 44.9193 101.306 44.3299 101.796 43.7495C102.292 43.1692 103.005 42.4982 103.936 41.7364C105.381 40.5515 106.357 39.6145 106.865 38.9253C107.373 38.2301 107.627 37.5742 107.627 36.9576C107.627 36.3107 107.394 35.7666 106.928 35.3253C106.469 34.8779 105.867 34.6543 105.124 34.6543C104.338 34.6543 103.709 34.89 103.238 35.3616C102.766 35.8331 102.527 36.486 102.521 37.3203L100.844 37.148C100.959 35.8966 101.391 34.9444 102.14 34.2915C102.89 33.6326 103.897 33.3031 105.16 33.3031C106.436 33.3031 107.445 33.6568 108.189 34.3641C108.932 35.0714 109.304 35.948 109.304 36.9938C109.304 37.5258 109.195 38.0487 108.978 38.5626C108.76 39.0765 108.397 39.6175 107.89 40.1858C107.388 40.7541 106.551 41.5339 105.378 42.5254C104.398 43.3475 103.77 43.9067 103.492 44.203C103.213 44.4931 102.984 44.7863 102.802 45.0826H109.322Z" fill="#F5F7FA"/>
<path d="M90.4063 40.0951C90.4063 38.5233 90.5665 37.2598 90.8869 36.3047C91.2134 35.3434 91.694 34.6029 92.3288 34.083C92.9696 33.5631 93.7736 33.3031 94.7409 33.3031C95.4542 33.3031 96.0799 33.4482 96.618 33.7384C97.156 34.0225 97.6004 34.4366 97.951 34.9807C98.3016 35.5188 98.5767 36.1777 98.7762 36.9576C98.9757 37.7314 99.0754 38.7772 99.0754 40.0951C99.0754 41.6548 98.9152 42.9153 98.5948 43.8765C98.2744 44.8317 97.7938 45.5722 97.153 46.0982C96.5182 46.6181 95.7142 46.878 94.7409 46.878C93.4593 46.878 92.4527 46.4186 91.7212 45.4997C90.8446 44.3934 90.4063 42.5919 90.4063 40.0951ZM92.0839 40.0951C92.0839 42.2775 92.3378 43.7314 92.8457 44.4569C93.3595 45.1763 93.9913 45.536 94.7409 45.536C95.4905 45.536 96.1192 45.1732 96.627 44.4478C97.1409 43.7223 97.3978 42.2715 97.3978 40.0951C97.3978 37.9067 97.1409 36.4528 96.627 35.7334C96.1192 35.014 95.4845 34.6543 94.7227 34.6543C93.9731 34.6543 93.3746 34.9716 92.9273 35.6064C92.365 36.4165 92.0839 37.9127 92.0839 40.0951Z" fill="#F5F7FA"/>
<path d="M88.6471 45.0826V46.6513H79.8602C79.8481 46.2584 79.9115 45.8805 80.0506 45.5178C80.2743 44.9193 80.6309 44.3299 81.1206 43.7495C81.6163 43.1692 82.3297 42.4982 83.2607 41.7364C84.7055 40.5515 85.6819 39.6145 86.1897 38.9253C86.6975 38.2301 86.9514 37.5742 86.9514 36.9576C86.9514 36.3107 86.7186 35.7666 86.2532 35.3253C85.7937 34.8779 85.1922 34.6543 84.4486 34.6543C83.6627 34.6543 83.034 34.89 82.5624 35.3616C82.0909 35.8331 81.8521 36.486 81.8461 37.3203L80.1685 37.148C80.2833 35.8966 80.7156 34.9444 81.4652 34.2915C82.2148 33.6326 83.2214 33.3031 84.4849 33.3031C85.7605 33.3031 86.77 33.6568 87.5136 34.3641C88.2572 35.0714 88.629 35.948 88.629 36.9938C88.629 37.5258 88.5202 38.0487 88.3025 38.5626C88.0849 39.0765 87.7222 39.6175 87.2144 40.1858C86.7126 40.7541 85.8753 41.5339 84.7025 42.5254C83.7232 43.3475 83.0944 43.9067 82.8163 44.203C82.5383 44.4931 82.3085 44.7863 82.1272 45.0826H88.6471Z" fill="#F5F7FA"/>
</svg>
