<svg width="17" height="17" viewBox="0 0 17 17" fill="none" xmlns="http://www.w3.org/2000/svg">
<path fill-rule="evenodd" clip-rule="evenodd" d="M11.2177 4.32899C11.3293 4.32899 11.4203 4.41991 11.4203 4.5317C11.4203 4.64326 11.3294 4.73421 11.2177 4.73421C11.1061 4.73421 11.0153 4.64326 11.0153 4.5317C11.0153 4.41991 11.1061 4.32899 11.2177 4.32899ZM11.2177 5.20368C11.5884 5.20368 11.8897 4.902 11.8897 4.5317C11.8897 4.1611 11.5884 3.85945 11.2177 3.85945C10.8472 3.85945 10.5459 4.1611 10.5459 4.5317C10.5459 4.902 10.8472 5.20368 11.2177 5.20368ZM9.17146 4.32899C9.28325 4.32899 9.37386 4.41991 9.37386 4.5317C9.37386 4.64326 9.28325 4.73421 9.17146 4.73421C9.05967 4.73421 8.96889 4.64326 8.96889 4.5317C8.96889 4.41991 9.05967 4.32899 9.17146 4.32899ZM9.17146 5.20368C9.54199 5.20368 9.84344 4.902 9.84344 4.5317C9.84344 4.1611 9.54199 3.85945 9.17146 3.85945C8.80093 3.85945 8.49949 4.1611 8.49949 4.5317C8.49949 4.902 8.80096 5.20368 9.17146 5.20368ZM7.12507 4.32899C7.23686 4.32899 7.32764 4.41991 7.32764 4.5317C7.32764 4.64326 7.23686 4.73421 7.12507 4.73421C7.01358 4.73421 6.92267 4.64326 6.92267 4.5317C6.92267 4.41991 7.01358 4.32899 7.12507 4.32899ZM7.12507 5.20368C7.49577 5.20368 7.79705 4.902 7.79705 4.5317C7.79705 4.1611 7.49577 3.85945 7.12507 3.85945C6.75454 3.85945 6.45309 4.1611 6.45309 4.5317C6.45309 4.902 6.75454 5.20368 7.12507 5.20368ZM5.28621 2.90698V6.15612C5.28621 6.8063 5.81491 7.34945 6.46486 7.36672C6.59222 7.36996 6.69361 7.47413 6.69361 7.60119V9.04486L8.30256 7.43568C8.34662 7.39168 8.40656 7.36703 8.46868 7.36703H11.8458C12.5135 7.36703 13.0567 6.82385 13.0567 6.15609V2.90698C13.0567 2.23915 12.5135 1.69607 11.8458 1.69607H6.49716C5.82933 1.69607 5.28621 2.23915 5.28621 2.90698ZM6.22404 7.81396V9.61181C6.22404 9.82054 6.47764 9.92512 6.62486 9.77783L8.56575 7.83654H11.8458C12.7723 7.83654 13.5261 7.08279 13.5261 6.15612V2.90698C13.5261 1.98041 12.7723 1.22656 11.8458 1.22656H6.49716C5.57059 1.22656 4.81681 1.98041 4.81681 2.90698V6.15612C4.81681 6.98096 5.42966 7.68133 6.22404 7.81396ZM14.7272 11.8853C14.7177 11.8931 14.7101 11.8984 14.6998 11.9055L9.65943 15.1906C9.58405 15.2399 9.50507 15.252 9.41827 15.2277L6.30387 14.3564C6.16671 14.318 6.03353 14.3177 5.89658 14.355L4.74395 14.6693V11.3776L6.41039 10.9164L9.39777 11.7168C9.76894 11.8163 9.99025 12.1992 9.8907 12.5707C9.79132 12.9418 9.4082 13.1628 9.03686 13.0634L5.98787 12.2465C5.86248 12.213 5.73413 12.2872 5.70033 12.4126C5.66688 12.5376 5.74107 12.6664 5.86629 12.6998L8.91527 13.517C9.4896 13.6706 10.0956 13.366 10.3083 12.8028L14.486 10.9249C14.5491 10.8964 14.6046 10.8909 14.6717 10.9058C15.157 11.0143 15.147 11.5373 14.7272 11.8853ZM4.27451 15.0399C4.27451 15.1892 4.1531 15.311 4.00336 15.311H2.23291C2.08318 15.311 1.96176 15.1892 1.96176 15.0399V11.164C1.96176 11.0147 2.08318 10.8929 2.23291 10.8929H4.00336C4.1531 10.8929 4.27451 11.0147 4.27451 11.164V15.0399ZM15.4833 11.1074C15.4033 10.7758 15.1383 10.5293 14.7744 10.4477C14.6071 10.4102 14.4499 10.4263 14.2936 10.4965L10.3763 12.2576C10.3228 11.7957 9.99453 11.3908 9.51918 11.2632L6.4702 10.4462C6.42977 10.4354 6.3872 10.4357 6.34664 10.4468L4.69676 10.9034C4.59125 10.6232 4.32027 10.4234 4.00343 10.4234H2.23291C1.82447 10.4234 1.49219 10.7555 1.49219 11.1639V15.0398C1.49219 15.448 1.82444 15.7804 2.23291 15.7804H4.00336C4.37141 15.7804 4.67731 15.5105 4.73463 15.1584L6.0201 14.808C6.07576 14.7928 6.12163 14.7928 6.17729 14.8083L9.29169 15.6798C9.50701 15.74 9.72403 15.7087 9.91562 15.5839L14.956 12.2986C14.9815 12.2819 15.0032 12.2661 15.0267 12.2464C15.4023 11.9348 15.5772 11.4985 15.4833 11.1074Z" fill="#0F7B6C"/>
</svg>
