<svg width="10" height="10" viewBox="0 0 10 10" fill="none" xmlns="http://www.w3.org/2000/svg">
<path d="M0.68541 9.31456C0.964352 9.59351 1.41661 9.59351 1.69556 9.31456L9.79078 1.21933C10.0697 0.940378 10.0697 0.48819 9.79078 0.209238C9.51182 -0.0697126 9.05954 -0.0697126 8.78059 0.209238L0.68541 8.30441C0.406458 8.58336 0.406458 9.03561 0.68541 9.31456Z" fill="#0B1F3B"/>
<path d="M9.28572 10C9.68019 10 10 9.68021 10 9.28572V0.714283C10 0.319808 9.68019 0 9.28572 0H0.714283C0.319789 0 0 0.319808 0 0.714283C0 1.10885 0.319789 1.42857 0.714283 1.42857H8.57143V9.28572C8.57143 9.68021 8.89115 10 9.28572 10Z" fill="#0B1F3B"/>
</svg>
