<svg width="17" height="17" viewBox="0 0 17 17" fill="none" xmlns="http://www.w3.org/2000/svg">
<path d="M6.39071 8.64895C5.74248 8.64892 5.10881 8.45667 4.56984 8.09651C4.03087 7.73635 3.6108 7.22445 3.36274 6.62556C3.11469 6.02666 3.0498 5.36766 3.17627 4.73188C3.30274 4.09611 3.6149 3.51211 4.07327 3.05374C4.53164 2.59537 5.11564 2.28321 5.75141 2.15674C6.38719 2.03027 7.04619 2.09516 7.64509 2.34321C8.24398 2.59126 8.75588 3.01134 9.11604 3.55031C9.4762 4.08928 9.66845 4.72295 9.66848 5.37118C9.66754 6.24021 9.3219 7.07338 8.70741 7.68788C8.09291 8.30237 7.25974 8.64801 6.39071 8.64895ZM6.39071 3.15625C5.95261 3.15628 5.52435 3.28623 5.1601 3.52966C4.79585 3.77308 4.51196 4.11905 4.34433 4.52382C4.17671 4.92859 4.13288 5.37397 4.21838 5.80365C4.30388 6.23333 4.51487 6.62801 4.82468 6.93777C5.13449 7.24754 5.5292 7.45848 5.95889 7.54392C6.38858 7.62936 6.83396 7.58546 7.2387 7.41778C7.64345 7.2501 7.98938 6.96616 8.23275 6.60187C8.47613 6.23759 8.60601 5.80931 8.60598 5.37121C8.60529 4.78393 8.37166 4.2209 7.95636 3.80566C7.54105 3.39041 6.978 3.15687 6.39071 3.15625Z" fill="#0F7B6C"/>
<path d="M11.3341 13.6217C11.2175 13.6216 11.1042 13.5832 11.0117 13.5123C10.9191 13.4414 10.8524 13.342 10.8219 13.2295L10.2883 11.2622C10.1961 10.9248 9.99568 10.6269 9.71782 10.4144C9.43995 10.2019 9.10001 10.0865 8.7502 10.0859H4.00212C3.65232 10.0865 3.31237 10.2019 3.03451 10.4144C2.75665 10.6269 2.55624 10.9248 2.46406 11.2622L1.93038 13.2295C1.91213 13.2968 1.88079 13.3599 1.83816 13.4151C1.79553 13.4703 1.74245 13.5165 1.68194 13.5512C1.62143 13.5859 1.55469 13.6083 1.48551 13.6172C1.41634 13.6261 1.34609 13.6213 1.27877 13.603C1.21146 13.5848 1.14841 13.5534 1.09321 13.5108C1.038 13.4682 0.991741 13.4151 0.957055 13.3546C0.922369 13.2941 0.899941 13.2273 0.891051 13.1582C0.882161 13.089 0.886983 13.0187 0.905242 12.9514L1.43891 10.9842C1.59234 10.4217 1.92627 9.92512 2.38936 9.57088C2.85246 9.21664 3.41908 9.0243 4.00212 9.02344H8.75017C9.33321 9.0243 9.89984 9.21664 10.3629 9.57088C10.826 9.92512 11.16 10.4217 11.3134 10.9842L11.8471 12.9514C11.8654 13.0187 11.8702 13.089 11.8614 13.1582C11.8525 13.2274 11.8301 13.2942 11.7954 13.3547C11.7607 13.4152 11.7144 13.4683 11.6592 13.5109C11.604 13.5535 11.5409 13.5849 11.4735 13.6031C11.4281 13.6155 11.3812 13.6218 11.3341 13.6217Z" fill="#0F7B6C"/>
<path d="M11.3823 7.32407C11.1027 7.32404 10.8247 7.28314 10.557 7.20268C10.4224 7.16196 10.3095 7.06951 10.2429 6.94561C10.1764 6.82171 10.1617 6.67648 10.202 6.54176C10.2424 6.40704 10.3346 6.29384 10.4583 6.22698C10.5821 6.16013 10.7273 6.14508 10.8621 6.18514C11.1099 6.25934 11.3707 6.27935 11.6269 6.2438C11.8831 6.20826 12.1286 6.11799 12.3468 5.97913C12.565 5.84027 12.7508 5.65608 12.8915 5.43906C13.0322 5.22204 13.1245 4.97728 13.1622 4.72141C13.1999 4.46554 13.1821 4.20454 13.11 3.95616C13.0379 3.70777 12.9132 3.47781 12.7444 3.2819C12.5755 3.08599 12.3665 2.92872 12.1314 2.82077C11.8964 2.71281 11.6409 2.65671 11.3823 2.65627C10.9874 2.65459 10.6037 2.78689 10.2938 3.03154C10.239 3.07478 10.1761 3.10677 10.1089 3.1257C10.0417 3.14463 9.97135 3.15011 9.90199 3.14184C9.83264 3.13357 9.7656 3.11171 9.7047 3.0775C9.6438 3.04329 9.59025 2.99741 9.5471 2.94249C9.50395 2.88757 9.47206 2.82467 9.45324 2.75741C9.43442 2.69015 9.42905 2.61983 9.43744 2.55049C9.44582 2.48115 9.46779 2.41414 9.5021 2.3533C9.5364 2.29246 9.58237 2.23898 9.63736 2.19592C10.1342 1.80364 10.7493 1.59137 11.3823 1.59377C12.1421 1.59377 12.8709 1.89563 13.4082 2.43295C13.9455 2.97027 14.2474 3.69904 14.2474 4.45892C14.2474 5.21881 13.9455 5.94757 13.4082 6.48489C12.8709 7.02221 12.1421 7.32407 11.3823 7.32407Z" fill="#0F7B6C"/>
<path d="M15.5843 11.8683C15.4658 11.8682 15.3507 11.8285 15.2573 11.7555C15.164 11.6825 15.0977 11.5804 15.0689 11.4654L14.7431 10.1549C14.6479 9.77978 14.4303 9.44713 14.1247 9.20963C13.8191 8.97214 13.443 8.84338 13.056 8.84375H9.91797C9.77707 8.84375 9.64195 8.78778 9.54232 8.68815C9.44269 8.58852 9.38672 8.4534 9.38672 8.3125C9.38672 8.1716 9.44269 8.03648 9.54232 7.93685C9.64195 7.83722 9.77707 7.78125 9.91797 7.78125H13.056C13.6798 7.78082 14.286 7.98864 14.7783 8.37177C15.2706 8.75489 15.621 9.2914 15.7738 9.89622L16.1003 11.2088C16.1199 11.2871 16.1214 11.3689 16.1046 11.4479C16.0878 11.5269 16.0532 11.601 16.0034 11.6646C15.9537 11.7282 15.89 11.7796 15.8174 11.8149C15.7448 11.8502 15.665 11.8685 15.5843 11.8683Z" fill="#0F7B6C"/>
</svg>
