<svg width="17" height="17" viewBox="0 0 17 17" fill="none" xmlns="http://www.w3.org/2000/svg">
<path fill-rule="evenodd" clip-rule="evenodd" d="M10.4505 15.4143V2.29385C10.4505 1.88302 10.2465 1.49839 9.90581 1.26748C9.5651 1.03727 9.13231 0.990518 8.75052 1.14352L3.08385 3.41019C2.61352 3.59789 2.30469 4.05406 2.30469 4.56123V15.4143C2.30469 15.7083 2.54269 15.9456 2.83594 15.9456H9.91927C10.2125 15.9456 10.4505 15.7083 10.4505 15.4143ZM9.38802 2.29385V14.8831H3.36719V4.56123C3.36719 4.48827 3.4111 4.4231 3.4784 4.39618L9.14506 2.12952C9.1996 2.10827 9.26123 2.11464 9.3101 2.14723C9.35898 2.18052 9.38802 2.23577 9.38802 2.29385Z" fill="#0F7B6C"/>
<path fill-rule="evenodd" clip-rule="evenodd" d="M14.6992 15.4167V6.20833C14.6992 5.52408 14.1439 4.96875 13.4596 4.96875C12.2505 4.96875 9.91797 4.96875 9.91797 4.96875C9.62472 4.96875 9.38672 5.20675 9.38672 5.5V15.4167C9.38672 15.7106 9.62472 15.9479 9.91797 15.9479H14.168C14.4612 15.9479 14.6992 15.7106 14.6992 15.4167ZM13.6367 6.20833V14.8854H10.4492V6.03196L13.4596 6.03125C13.5574 6.03125 13.6367 6.11058 13.6367 6.20833Z" fill="#0F7B6C"/>
<path fill-rule="evenodd" clip-rule="evenodd" d="M15.5846 14.8828H1.41797C1.12472 14.8828 0.886719 15.1215 0.886719 15.4141C0.886719 15.7073 1.12472 15.9453 1.41797 15.9453H15.5846C15.8779 15.9453 16.1159 15.7073 16.1159 15.4141C16.1159 15.1215 15.8779 14.8828 15.5846 14.8828Z" fill="#0F7B6C"/>
<path fill-rule="evenodd" clip-rule="evenodd" d="M4.96094 6.38281H7.79427C8.08752 6.38281 8.32552 6.14481 8.32552 5.85156C8.32552 5.55902 8.08752 5.32031 7.79427 5.32031H4.96094C4.66769 5.32031 4.42969 5.55902 4.42969 5.85156C4.42969 6.14481 4.66769 6.38281 4.96094 6.38281Z" fill="#0F7B6C"/>
<path fill-rule="evenodd" clip-rule="evenodd" d="M4.96094 8.85938H7.79427C8.08752 8.85938 8.32552 8.62137 8.32552 8.32812C8.32552 8.03558 8.08752 7.79688 7.79427 7.79688H4.96094C4.66769 7.79688 4.42969 8.03558 4.42969 8.32812C4.42969 8.62137 4.66769 8.85938 4.96094 8.85938Z" fill="#0F7B6C"/>
<path fill-rule="evenodd" clip-rule="evenodd" d="M4.96094 11.3438H7.79427C8.08752 11.3438 8.32552 11.1057 8.32552 10.8125C8.32552 10.52 8.08752 10.2812 7.79427 10.2812H4.96094C4.66769 10.2812 4.42969 10.52 4.42969 10.8125C4.42969 11.1057 4.66769 11.3438 4.96094 11.3438Z" fill="#0F7B6C"/>
<path fill-rule="evenodd" clip-rule="evenodd" d="M4.96094 13.8203H7.79427C8.08752 13.8203 8.32552 13.5823 8.32552 13.2891C8.32552 12.9965 8.08752 12.7578 7.79427 12.7578H4.96094C4.66769 12.7578 4.42969 12.9965 4.42969 13.2891C4.42969 13.5823 4.66769 13.8203 4.96094 13.8203Z" fill="#0F7B6C"/>
</svg>
