<svg width="17" height="17" viewBox="0 0 17 17" fill="none" xmlns="http://www.w3.org/2000/svg">
<g clip-path="url(#clip0_2864_11522)">
<path d="M8.5 0C3.81253 0 0 3.81253 0 8.5C0 13.1875 3.81253 17 8.5 17C13.1875 17 17 13.1875 17 8.5C17 3.81253 13.1875 0 8.5 0ZM8.5 15.3C4.75093 15.3 1.7 12.2491 1.7 8.5C1.7 4.75093 4.75093 1.7 8.5 1.7C12.2491 1.7 15.3 4.75093 15.3 8.5C15.3 12.2491 12.2491 15.3 8.5 15.3Z" fill="#0F7B6C"/>
<path d="M6.79836 6.80227L4.24609 12.7545L10.1984 10.2023L12.7506 4.25L6.79836 6.80227ZM8.49836 9.35453C8.02689 9.35453 7.64609 8.97373 7.64609 8.50227C7.64609 8.0308 8.02689 7.65 8.49836 7.65C8.96983 7.65 9.35063 8.0308 9.35063 8.50227C9.35063 8.97373 8.96983 9.35453 8.49836 9.35453Z" fill="#0F7B6C"/>
</g>
<defs>
<clipPath id="clip0_2864_11522">
<rect width="17" height="17" fill="white"/>
</clipPath>
</defs>
</svg>
