<svg width="17" height="17" viewBox="0 0 17 17" fill="none" xmlns="http://www.w3.org/2000/svg">
<g clip-path="url(#clip0_866_1930)">
<path d="M16.8021 7.88548C16.544 7.46863 16.0874 7.21986 15.5808 7.21986H14.3163V4.90018C14.3163 4.34027 13.8439 3.8849 13.2634 3.8849H7.07291C7.06384 3.8849 7.05774 3.8823 7.05527 3.88074L5.94738 2.33122C5.75088 2.05652 5.4269 1.89258 5.0806 1.89258H1.0529C0.472237 1.89258 0 2.34808 0 2.90787V14.0358C0 14.6089 0.48378 15.0751 1.07858 15.0751H13.6082C13.8034 15.0751 13.972 14.9624 14.0536 14.7989L14.054 14.799L16.8617 9.15978C17.0654 8.7511 17.0429 8.27471 16.8021 7.88548ZM1.0529 2.88867H5.0806C5.11043 2.88867 5.13066 2.90177 5.13702 2.91072L6.2466 4.46245C6.43388 4.72444 6.74283 4.88099 7.07291 4.88099H13.2634C13.2981 4.88099 13.3158 4.89733 13.3202 4.90317V7.21986H4.30642C3.74741 7.21986 3.23899 7.5349 3.01111 8.02257L0.996094 12.3347V2.91085C1.0005 2.90501 1.01814 2.88867 1.0529 2.88867ZM15.9701 8.71582L13.2998 14.0789H1.28053L3.91356 8.44436C3.97737 8.30778 4.13535 8.21596 4.30642 8.21596H15.5808C15.74 8.21596 15.8799 8.28846 15.9551 8.40986C15.9974 8.47821 16.0343 8.58677 15.9701 8.71582Z" fill="#0F7B6C"/>
</g>
<defs>
<clipPath id="clip0_866_1930">
<rect width="17" height="17" fill="white"/>
</clipPath>
</defs>
</svg>
