<svg width="17" height="17" viewBox="0 0 17 17" fill="none" xmlns="http://www.w3.org/2000/svg">
<g clip-path="url(#clip0_2864_11265)">
<path d="M8.6091 6.30469C7.65141 6.30469 6.875 7.08105 6.875 8.03879C6.875 8.99648 7.65137 9.77289 8.6091 9.77289C9.5668 9.77289 10.3432 8.99652 10.3432 8.03879C10.3432 7.08105 9.56683 6.30469 8.6091 6.30469ZM8.6091 8.94709C8.10743 8.94709 7.70076 8.54041 7.70076 8.03875C7.70076 7.53708 8.10743 7.13041 8.6091 7.13041C9.11077 7.13041 9.51744 7.53708 9.51744 8.03875C9.51744 8.54041 9.11077 8.94709 8.6091 8.94709Z" fill="#0F7B6C"/>
<path d="M15.5248 2.34219L4.25323 1.0623C3.81577 1.0001 3.37254 1.12781 3.03525 1.41326C2.698 1.67476 2.48182 2.06239 2.43658 2.48673L2.23016 4.17954H1.59016C0.681814 4.17954 0.000557891 4.98463 0.000557891 5.89297V14.3363C-0.0223206 15.2025 0.661307 15.9233 1.52753 15.9461C1.54839 15.9467 1.56929 15.9468 1.59016 15.9465H12.9236C13.832 15.9465 14.6577 15.2446 14.6577 14.3363V14.006C14.9394 13.9516 15.2065 13.8391 15.4422 13.6757C15.7767 13.3941 15.9909 12.9953 16.0409 12.561L16.9905 4.17954C17.0873 3.2691 16.434 2.4501 15.5248 2.34219ZM13.832 14.3363C13.832 14.7905 13.3778 15.1208 12.9236 15.1208H1.59016C1.17989 15.1328 0.837538 14.81 0.825486 14.3997C0.824854 14.3786 0.825131 14.3574 0.826316 14.3363V12.8087L4.02614 10.4553C4.41053 10.1601 4.95195 10.1864 5.30607 10.5172L7.55626 12.499C7.89797 12.7859 8.32812 12.9463 8.77427 12.9532C9.1231 12.9574 9.4662 12.8645 9.7652 12.6848L13.832 10.3314V14.3363H13.832ZM13.832 9.36113L9.33161 11.9829C8.94517 12.2119 8.45603 12.1704 8.1136 11.8797L5.84278 9.87722C5.19195 9.31798 4.2407 9.28368 3.5513 9.79464L0.826316 11.7764V5.89297C0.826316 5.4388 1.13599 5.00529 1.59016 5.00529H12.9236C13.4089 5.02541 13.8007 5.40837 13.832 5.89297V9.36113ZM16.1656 4.06807C16.1653 4.07079 16.165 4.07356 16.1647 4.07629L15.1945 12.4577C15.1961 12.675 15.097 12.8809 14.9261 13.0151C14.8435 13.0977 14.6577 13.139 14.6577 13.1803V5.89297C14.6251 4.9525 13.8644 4.20083 12.9236 4.17954H3.05588L3.24167 2.56931C3.28198 2.3608 3.391 2.17184 3.55134 2.03256C3.73239 1.90738 3.9513 1.84901 4.17068 1.86739L15.4216 3.16794C15.8756 3.21105 16.2087 3.61405 16.1656 4.06807Z" fill="#0F7B6C"/>
</g>
<defs>
<clipPath id="clip0_2864_11265">
<rect width="17" height="17" fill="white"/>
</clipPath>
</defs>
</svg>
