<svg width="20" height="17" viewBox="0 0 20 17" fill="none" xmlns="http://www.w3.org/2000/svg">
<g clip-path="url(#clip0_392_126)">
<path d="M18.7937 11.5274H19.8808L18.4592 9.98463C16.4242 7.77232 13.6087 6.5206 10.6539 6.5206H10.3194H9.59464H9.23225C6.30527 6.5206 3.48982 7.77232 1.42699 9.98463L0.00532532 11.5274H1.09249C4.01945 11.5274 6.83491 10.2757 8.89773 8.0634L9.95702 6.92813C9.34375 10.8288 4.01945 17 4.01945 17H9.98489H15.9503C15.9503 17 10.6818 10.9161 10.0128 7.01547L10.9884 8.09251C13.0234 10.2757 15.8388 11.5274 18.7937 11.5274Z" fill="#F5F7FA"/>
<path d="M9.06475 4.24995L9.92891 3.31845L10.7931 4.24995C12.4656 6.08385 14.8072 7.1027 17.2324 7.1027H18.1244L16.9536 5.82189C15.2811 3.98799 12.9395 2.96915 10.5143 2.96915H10.2355H9.62227H9.34352C6.91832 2.96915 4.60461 3.98799 2.90418 5.82189L1.7334 7.13181H2.62543C5.05064 7.13181 7.3922 6.08385 9.06475 4.24995Z" fill="#F5F7FA"/>
<path d="M9.23225 1.04794L9.92916 0.291094L10.626 1.04794C11.992 2.53253 13.8875 3.3767 15.8667 3.3767H16.5915L15.6437 2.32876C14.2778 0.844175 12.3822 0 10.403 0H10.18H9.67827H9.45527C7.47609 0 5.58052 0.844175 4.21461 2.32876L3.26682 3.3767H3.99159C5.97077 3.3767 7.86634 2.53253 9.23225 1.04794Z" fill="#F5F7FA"/>
</g>
<defs>
<clipPath id="clip0_392_126">
<rect width="20" height="17" fill="white"/>
</clipPath>
</defs>
</svg>
