<svg width="36" height="36" viewBox="0 0 36 36" fill="none" xmlns="http://www.w3.org/2000/svg">
<path d="M24 33.75H6C5.0058 33.7488 4.05267 33.3533 3.34966 32.6503C2.64666 31.9473 2.25119 30.9942 2.25 30V6C2.25119 5.0058 2.64666 4.05267 3.34966 3.34967C4.05267 2.64666 5.0058 2.25119 6 2.25H17.595C18.0944 2.25033 18.5888 2.34997 19.0493 2.5431C19.5099 2.73624 19.9275 3.01902 20.2778 3.375L26.6813 9.92925C27.3681 10.6304 27.7519 11.5735 27.75 12.555V18.1425C27.75 18.3414 27.671 18.5322 27.5303 18.6728C27.3897 18.8135 27.1989 18.8925 27 18.8925C26.8011 18.8925 26.6103 18.8135 26.4697 18.6728C26.329 18.5322 26.25 18.3414 26.25 18.1425V12.555C26.2503 11.9662 26.0198 11.4008 25.608 10.98L19.2037 4.425C18.9939 4.21126 18.7435 4.04148 18.4673 3.92558C18.1911 3.80968 17.8945 3.74999 17.595 3.75H6C5.40326 3.75 4.83097 3.98705 4.40901 4.40901C3.98705 4.83097 3.75 5.40326 3.75 6V30C3.75 30.5967 3.98705 31.169 4.40901 31.591C4.83097 32.0129 5.40326 32.25 6 32.25H24C24.2829 32.2511 24.5633 32.1963 24.825 32.0888C25.009 32.0131 25.2155 32.0136 25.3991 32.0902C25.5828 32.1667 25.7284 32.3131 25.8041 32.4971C25.8798 32.6811 25.8793 32.8876 25.8027 33.0713C25.7261 33.2549 25.5797 33.4006 25.3958 33.4763C24.9529 33.6581 24.4787 33.7511 24 33.75Z" fill="#FF0000"/>
<path d="M26.6925 11.9999H21.75C20.7558 11.9987 19.8027 11.6033 19.0997 10.9003C18.3967 10.1973 18.0012 9.24412 18 8.24992V3.23242C18 3.03351 18.079 2.84274 18.2197 2.70209C18.3603 2.56144 18.5511 2.48242 18.75 2.48242C18.9489 2.48242 19.1397 2.56144 19.2803 2.70209C19.421 2.84274 19.5 3.03351 19.5 3.23242V8.24992C19.5 8.84666 19.7371 9.41896 20.159 9.84091C20.581 10.2629 21.1533 10.4999 21.75 10.4999H26.6925C26.8914 10.4999 27.0822 10.5789 27.2228 10.7196C27.3635 10.8602 27.4425 11.051 27.4425 11.2499C27.4425 11.4488 27.3635 11.6396 27.2228 11.7803C27.0822 11.9209 26.8914 11.9999 26.6925 11.9999Z" fill="#FF0000"/>
<path d="M25.5 33.6403C25.2042 33.6407 24.915 33.5532 24.669 33.3891L22.26 31.7826C20.7178 30.7571 19.4532 29.366 18.5791 27.7333C17.7049 26.1005 17.2483 24.2769 17.25 22.4248V21.1408C17.2515 20.8034 17.3662 20.4762 17.5757 20.2117C17.7853 19.9472 18.0776 19.7607 18.4058 19.6821C20.6332 19.0664 22.7522 18.1104 24.6878 16.8478C24.9299 16.6918 25.2119 16.6089 25.5 16.6089C25.7881 16.6089 26.0701 16.6918 26.3123 16.8478C28.2478 18.1105 30.3668 19.0666 32.5943 19.6821C32.9224 19.7607 33.2147 19.9472 33.4243 20.2117C33.6338 20.4762 33.7485 20.8034 33.75 21.1408V22.4248C33.7522 24.2774 33.2958 26.1017 32.4217 27.735C31.5475 29.3683 30.2827 30.7599 28.74 31.7856L26.3318 33.3913C26.0852 33.5548 25.7958 33.6415 25.5 33.6403ZM25.5 18.1078C23.4264 19.4606 21.1553 20.4832 18.768 21.1393L18.75 22.4248C18.7482 24.0303 19.1437 25.6114 19.9012 27.0269C20.6588 28.4424 21.7549 29.6485 23.0918 30.5376L25.5 32.1403L27.9083 30.5346C29.2447 29.6458 30.3405 28.4402 31.0981 27.0252C31.8556 25.6102 32.2513 24.0298 32.25 22.4248V21.1408C29.8568 20.4851 27.5797 19.4622 25.5 18.1086V18.1078Z" fill="#FF0000"/>
<path d="M24.7501 27.0001C24.5512 27 24.3604 26.921 24.2198 26.7803L22.7198 25.2803C22.5832 25.1389 22.5076 24.9494 22.5093 24.7528C22.511 24.5561 22.5899 24.368 22.7289 24.2289C22.868 24.0899 23.0561 24.011 23.2528 24.0093C23.4494 24.0076 23.6389 24.0832 23.7803 24.2198L24.7501 25.1896L27.2198 22.7198C27.3613 22.5832 27.5507 22.5076 27.7474 22.5093C27.944 22.511 28.1321 22.5899 28.2712 22.7289C28.4102 22.868 28.4891 23.0561 28.4908 23.2528C28.4925 23.4494 28.4169 23.6389 28.2803 23.7803L25.2803 26.7803C25.1397 26.921 24.949 27 24.7501 27.0001Z" fill="#FF0000"/>
<path d="M13.5 9.75H7.5C7.30109 9.75 7.11032 9.67098 6.96967 9.53033C6.82902 9.38968 6.75 9.19891 6.75 9C6.75 8.80109 6.82902 8.61032 6.96967 8.46967C7.11032 8.32902 7.30109 8.25 7.5 8.25H13.5C13.6989 8.25 13.8897 8.32902 14.0303 8.46967C14.171 8.61032 14.25 8.80109 14.25 9C14.25 9.19891 14.171 9.38968 14.0303 9.53033C13.8897 9.67098 13.6989 9.75 13.5 9.75Z" fill="#FF0000"/>
<path d="M18 14.25H7.5C7.30109 14.25 7.11032 14.171 6.96967 14.0303C6.82902 13.8897 6.75 13.6989 6.75 13.5C6.75 13.3011 6.82902 13.1103 6.96967 12.9697C7.11032 12.829 7.30109 12.75 7.5 12.75H18C18.1989 12.75 18.3897 12.829 18.5303 12.9697C18.671 13.1103 18.75 13.3011 18.75 13.5C18.75 13.6989 18.671 13.8897 18.5303 14.0303C18.3897 14.171 18.1989 14.25 18 14.25Z" fill="#FF0000"/>
<path d="M19.5 18.75H7.5C7.30109 18.75 7.11032 18.671 6.96967 18.5303C6.82902 18.3897 6.75 18.1989 6.75 18C6.75 17.8011 6.82902 17.6103 6.96967 17.4697C7.11032 17.329 7.30109 17.25 7.5 17.25H19.5C19.6989 17.25 19.8897 17.329 20.0303 17.4697C20.171 17.6103 20.25 17.8011 20.25 18C20.25 18.1989 20.171 18.3897 20.0303 18.5303C19.8897 18.671 19.6989 18.75 19.5 18.75Z" fill="#FF0000"/>
<path d="M15 23.25H7.5C7.30109 23.25 7.11032 23.171 6.96967 23.0303C6.82902 22.8897 6.75 22.6989 6.75 22.5C6.75 22.3011 6.82902 22.1103 6.96967 21.9697C7.11032 21.829 7.30109 21.75 7.5 21.75H15C15.1989 21.75 15.3897 21.829 15.5303 21.9697C15.671 22.1103 15.75 22.3011 15.75 22.5C15.75 22.6989 15.671 22.8897 15.5303 23.0303C15.3897 23.171 15.1989 23.25 15 23.25Z" fill="#FF0000"/>
<path d="M15 27.75H7.5C7.30109 27.75 7.11032 27.671 6.96967 27.5303C6.82902 27.3897 6.75 27.1989 6.75 27C6.75 26.8011 6.82902 26.6103 6.96967 26.4697C7.11032 26.329 7.30109 26.25 7.5 26.25H15C15.1989 26.25 15.3897 26.329 15.5303 26.4697C15.671 26.6103 15.75 26.8011 15.75 27C15.75 27.1989 15.671 27.3897 15.5303 27.5303C15.3897 27.671 15.1989 27.75 15 27.75Z" fill="#FF0000"/>
</svg>
