<svg width="17" height="17" viewBox="0 0 17 17" fill="none" xmlns="http://www.w3.org/2000/svg">
<path d="M8.4987 0.710938C6.95766 0.710937 5.45122 1.16791 4.16988 2.02407C2.88855 2.88023 1.88987 4.09712 1.30014 5.52086C0.710407 6.9446 0.556106 8.51125 0.856749 10.0227C1.15739 11.5341 1.89948 12.9225 2.98916 14.0121C4.07885 15.1018 5.46719 15.8439 6.97862 16.1446C8.49006 16.4452 10.0567 16.2909 11.4804 15.7012C12.9042 15.1114 14.1211 14.1128 14.9772 12.8314C15.8334 11.5501 16.2904 10.0437 16.2904 8.5026C16.2879 6.43687 15.4662 4.45645 14.0056 2.99576C12.5449 1.53506 10.5644 0.713375 8.4987 0.710938ZM8.4987 14.8776C7.23785 14.8776 6.0053 14.5037 4.95694 13.8032C3.90858 13.1027 3.09148 12.1071 2.60897 10.9422C2.12646 9.77733 2.00021 8.49553 2.2462 7.2589C2.49218 6.02227 3.09934 4.88636 3.9909 3.9948C4.88246 3.10324 6.01837 2.49608 7.255 2.2501C8.49163 2.00412 9.77343 2.13036 10.9383 2.61287C12.1032 3.09538 13.0988 3.91248 13.7993 4.96084C14.4998 6.00921 14.8737 7.24175 14.8737 8.5026C14.8716 10.1927 14.1993 11.813 13.0042 13.0081C11.8091 14.2032 10.1888 14.8755 8.4987 14.8776Z" fill="#0F7B6C"/>
<path d="M9.20964 8.20415V4.2474C9.20964 4.05953 9.13501 3.87937 9.00217 3.74653C8.86933 3.61369 8.68916 3.53906 8.5013 3.53906C8.31344 3.53906 8.13327 3.61369 8.00043 3.74653C7.8676 3.87937 7.79297 4.05953 7.79297 4.2474V8.4974C7.79301 8.68524 7.86766 8.86538 8.00051 8.99819L10.1255 11.1232C10.2591 11.2522 10.438 11.3236 10.6238 11.322C10.8095 11.3204 10.9871 11.2459 11.1185 11.1146C11.2498 10.9832 11.3243 10.8056 11.3259 10.6198C11.3275 10.4341 11.2561 10.2552 11.1271 10.1216L9.20964 8.20415Z" fill="#0F7B6C"/>
</svg>
