<svg width="17" height="17" viewBox="0 0 17 17" fill="none" xmlns="http://www.w3.org/2000/svg">
<path d="M14.9457 2.05313C14.1665 1.27396 12.8207 1.27396 11.9707 2.05313L6.2332 7.64896C5.73737 8.14479 5.3832 8.78229 5.24154 9.49063L4.9582 11.049C4.88737 11.2615 4.9582 11.5448 5.1707 11.6865C5.31237 11.8281 5.45404 11.899 5.66654 11.899H5.8082L7.36654 11.6156C8.07487 11.474 8.71237 11.1198 9.2082 10.624L14.9457 4.95729C15.3707 4.60312 15.5832 4.03646 15.5832 3.46979C15.5832 2.90313 15.3707 2.40729 14.9457 2.05313ZM8.28737 9.56146C8.00404 9.84479 7.57904 10.0573 7.15404 10.1281L6.58737 10.2698L6.72904 9.77396C6.79987 9.34896 7.01237 8.99479 7.36654 8.64063L11.7582 4.31979L12.7499 5.24063L8.28737 9.56146ZM13.954 3.96563L13.6707 4.24896L12.679 3.32812L12.9624 3.04479C13.104 2.90313 13.3165 2.83229 13.4582 2.83229C13.6707 2.83229 13.8124 2.90313 13.954 3.04479C14.0957 3.18646 14.1665 3.32813 14.1665 3.46979C14.1665 3.61146 14.1665 3.82396 13.954 3.96563Z" fill="#0F7B6C"/>
<path d="M14.1667 7.0125C13.7417 7.0125 13.4583 7.29583 13.4583 7.72083V11.3333C13.4583 12.5375 12.5375 13.4583 11.3333 13.4583H5.66667C4.4625 13.4583 3.54167 12.5375 3.54167 11.3333V5.66667C3.54167 4.4625 4.4625 3.54167 5.66667 3.54167H9.20833C9.63333 3.54167 9.91667 3.25833 9.91667 2.83333C9.91667 2.40833 9.63333 2.125 9.20833 2.125H5.66667C3.68333 2.125 2.125 3.68333 2.125 5.66667V11.3333C2.125 13.3167 3.68333 14.875 5.66667 14.875H11.3333C13.3167 14.875 14.875 13.3167 14.875 11.3333V7.72083C14.875 7.36667 14.5917 7.0125 14.1667 7.0125Z" fill="#0F7B6C"/>
</svg>
