<svg width="17" height="17" viewBox="0 0 17 17" fill="none" xmlns="http://www.w3.org/2000/svg">
<g clip-path="url(#clip0_2864_12080)">
<path d="M13.1094 11.435C12.2949 11.435 11.561 11.7867 11.0517 12.3462L6.47058 9.50891C6.59288 9.19582 6.66072 8.85575 6.66072 8.49998C6.66072 8.14409 6.59288 7.80402 6.47058 7.49105L11.0517 4.65362C11.561 5.21314 12.2949 5.56501 13.1094 5.56501C14.6437 5.56501 15.8919 4.31679 15.8919 2.78244C15.8919 1.2481 14.6437 0 13.1094 0C11.575 0 10.3268 1.24823 10.3268 2.78257C10.3268 3.13834 10.3948 3.47841 10.5169 3.7915L5.93596 6.62881C5.42663 6.06929 4.69279 5.71741 3.87827 5.71741C2.34393 5.71741 1.0957 6.96577 1.0957 8.49998C1.0957 10.0343 2.34393 11.2826 3.87827 11.2826C4.69279 11.2826 5.42663 10.9308 5.93596 10.3712L10.5169 13.2085C10.3948 13.5216 10.3268 13.8616 10.3268 14.2175C10.3268 15.7517 11.575 17 13.1094 17C14.6437 17 15.8919 15.7517 15.8919 14.2175C15.8919 12.6832 14.6437 11.435 13.1094 11.435ZM11.3414 2.78257C11.3414 1.80775 12.1346 1.01464 13.1094 1.01464C14.0842 1.01464 14.8773 1.80775 14.8773 2.78257C14.8773 3.75739 14.0842 4.55051 13.1094 4.55051C12.1346 4.55051 11.3414 3.75739 11.3414 2.78257ZM3.87827 10.2679C2.90332 10.2679 2.11021 9.4748 2.11021 8.49998C2.11021 7.52516 2.90332 6.73205 3.87827 6.73205C4.8531 6.73205 5.64608 7.52516 5.64608 8.49998C5.64608 9.4748 4.8531 10.2679 3.87827 10.2679ZM11.3414 14.2174C11.3414 13.2426 12.1346 12.4495 13.1094 12.4495C14.0842 12.4495 14.8773 13.2426 14.8773 14.2174C14.8773 15.1922 14.0842 15.9853 13.1094 15.9853C12.1346 15.9853 11.3414 15.1922 11.3414 14.2174Z" fill="#0F7B6C"/>
</g>
<defs>
<clipPath id="clip0_2864_12080">
<rect width="17" height="17" fill="white"/>
</clipPath>
</defs>
</svg>
