<svg width="17" height="17" viewBox="0 0 17 17" fill="none" xmlns="http://www.w3.org/2000/svg">
<path d="M1.77075 10.8304V13.4583C1.77075 14.0427 2.24888 14.5208 2.83325 14.5208C3.41763 14.5208 3.89575 14.0427 3.89575 13.4583V10.9791C5.82242 10.9791 7.66409 11.8008 8.95325 13.2316L9.78908 14.1596C10.4266 14.8962 11.7087 14.411 11.6874 13.43V3.56643C11.7051 2.58893 10.4301 2.09664 9.78908 2.83685L8.95325 3.76477C7.66409 5.19914 5.82242 6.02081 3.89575 6.02081H2.47909C1.50159 6.02081 0.708252 6.81414 0.708252 7.79164V9.20831C0.708252 9.93435 1.14742 10.5541 1.77075 10.8304ZM3.18742 13.4583C3.18388 13.9223 2.48263 13.9223 2.47909 13.4583V10.9791H3.18742V13.4583ZM9.47742 4.24289L10.3133 3.31498C10.5328 3.05643 10.9897 3.22998 10.9755 3.56998V13.4335C10.9862 13.7735 10.5328 13.9471 10.3097 13.6885L9.47388 12.7606C8.13159 11.2696 6.24033 10.3771 4.24638 10.2814V6.72206C6.24742 6.62643 8.13513 5.73393 9.47742 4.24289ZM1.41659 7.79164C1.41659 7.20727 1.89471 6.72914 2.47909 6.72914H3.54159V10.2708H2.47909C1.89471 10.2708 1.41659 9.79269 1.41659 9.20831V7.79164Z" fill="#0F7B6C"/>
<path d="M13.4583 8.49998C13.4583 8.69477 13.6176 8.85415 13.8124 8.85415H15.9374C16.1322 8.85415 16.2916 8.69477 16.2916 8.49998C16.2916 8.30519 16.1322 8.14581 15.9374 8.14581H13.8124C13.6176 8.14581 13.4583 8.30519 13.4583 8.49998Z" fill="#0F7B6C"/>
<path d="M14.2694 12.6473C14.5987 12.9731 15.0981 12.4737 14.7687 12.1479L13.7062 11.0854C13.5681 10.9473 13.345 10.9473 13.2069 11.0854C13.0687 11.2235 13.0687 11.4467 13.2069 11.5848L14.2694 12.6473Z" fill="#0F7B6C"/>
<path d="M14.2694 4.35266C14.5987 4.02683 15.0981 4.5262 14.7687 4.85204L13.7062 5.91454C13.5681 6.05266 13.345 6.05266 13.2069 5.91454C13.0687 5.77641 13.0687 5.55329 13.2069 5.41516L14.2694 4.35266Z" fill="#0F7B6C"/>
</svg>
