<svg width="17" height="17" viewBox="0 0 17 17" fill="none" xmlns="http://www.w3.org/2000/svg">
<path d="M15.8954 1.12445L15.8795 1.10852C15.1411 0.370078 13.8554 0.370078 13.117 1.10852L10.8061 3.40352L2.77357 2.52695C2.39638 2.45789 1.99794 2.60664 1.58357 2.97852L0.88763 3.59477C0.76013 3.70633 0.664505 3.84977 0.61138 3.98258C0.606068 3.99852 0.59013 4.0357 0.584818 4.05164C0.52638 4.22695 0.515755 4.41289 0.552943 4.59883C0.59013 4.78477 0.67513 4.94945 0.797318 5.08758C0.919505 5.2257 1.07888 5.33195 1.25951 5.39039C1.27013 5.39039 1.28076 5.3957 1.29138 5.40102L6.47638 7.12227L6.93857 7.38258L4.42044 10.1876L2.50263 10.0123C2.30076 9.97508 2.09888 9.99633 1.90232 10.0813C1.76951 10.1398 1.65794 10.2195 1.55169 10.3257L0.792005 11.0854C0.712318 11.1651 0.65388 11.2554 0.61138 11.3616C0.44138 11.7813 0.643255 12.2648 1.06294 12.4348L3.52263 13.4388L4.56919 15.9304C4.61169 16.0366 4.67013 16.1323 4.75513 16.212C5.06857 16.5254 5.61044 16.5254 5.92388 16.212L6.69951 15.4363C6.79513 15.3354 6.90138 15.2026 6.95982 14.9954C6.95982 14.9795 6.97044 14.9635 6.97044 14.9476C7.01294 14.7776 7.00763 14.6288 6.99701 14.512L6.81638 12.541L9.62669 10.0707L9.89232 10.5435L11.6029 15.702C11.6029 15.702 11.6189 15.7498 11.6189 15.7604C11.6773 15.9357 11.7836 16.0951 11.9217 16.2173C12.0598 16.3395 12.2298 16.4245 12.4104 16.4616C12.4795 16.4776 12.5539 16.4829 12.6229 16.4829C12.7345 16.4829 12.8514 16.467 12.9576 16.4298C13.1329 16.3713 13.287 16.2651 13.4145 16.127L13.9989 15.4682C13.9989 15.4682 14.0308 15.431 14.0414 15.4257C14.4079 15.022 14.562 14.6182 14.4929 14.2782L13.6111 6.2032L15.9061 3.89227C16.6658 3.13258 16.6658 1.89477 15.9061 1.12977L15.8954 1.12445ZM15.1464 3.13258L12.6708 5.62414C12.5592 5.7357 12.5008 5.89508 12.522 6.05445L13.4358 14.4057C13.4358 14.4057 13.4251 14.5013 13.2233 14.7245L12.6229 15.3885L10.8858 10.1504C10.8751 10.1185 10.8592 10.0866 10.8433 10.0601L10.2323 8.97101C10.1526 8.83289 10.0145 8.73195 9.86044 8.70539C9.82857 8.70539 9.802 8.70008 9.77013 8.70008C9.64263 8.70008 9.51513 8.74789 9.41951 8.83289L5.91857 11.9141C5.79107 12.0257 5.72201 12.1904 5.73794 12.3604L5.94513 14.5916C5.95044 14.6607 5.94513 14.6766 5.94513 14.6766C5.94513 14.682 5.94513 14.6926 5.93982 14.6979H5.92919L5.42451 15.2026L4.42044 12.8173C4.36732 12.6898 4.26107 12.5835 4.13357 12.5304L1.79607 11.5795L2.31138 11.0535C2.31138 11.0535 2.35919 11.0641 2.38044 11.0641L4.59044 11.266C4.75513 11.282 4.91982 11.2182 5.03138 11.0907L8.17638 7.58977C8.28263 7.46758 8.33044 7.3082 8.30388 7.14883C8.27732 6.98945 8.18169 6.85133 8.03826 6.77164L6.95451 6.16602C6.92263 6.15008 6.89607 6.13414 6.86419 6.12352L1.61013 4.38102L2.31138 3.75945C2.50794 3.58414 2.58763 3.5682 2.63013 3.57352L10.9548 4.48195C11.1142 4.49789 11.2736 4.44477 11.3851 4.3332L13.8767 1.85758C14.2114 1.52289 14.7958 1.51758 15.1411 1.85758L15.157 1.8682C15.5023 2.21352 15.5023 2.78195 15.157 3.12727L15.1464 3.13258Z" fill="#0F7B6C"/>
</svg>
