<svg width="17" height="17" viewBox="0 0 17 17" fill="none" xmlns="http://www.w3.org/2000/svg">
<g clip-path="url(#clip0_2864_11790)">
<path fill-rule="evenodd" clip-rule="evenodd" d="M8.50078 0.421875C4.04339 0.421875 0.425781 4.03947 0.425781 8.49687C0.425781 12.9543 4.04339 16.5719 8.50078 16.5719C12.9582 16.5719 16.5758 12.9543 16.5758 8.49687C16.5758 4.03947 12.9582 0.421875 8.50078 0.421875ZM8.50078 15.4958C4.63839 15.4958 1.50189 12.3593 1.50189 8.49687C1.50189 4.63447 4.63839 1.49797 8.50078 1.49797C12.3632 1.49797 15.4997 4.63447 15.4997 8.49687C15.4997 12.3593 12.3632 15.4958 8.50078 15.4958Z" fill="#0F7B6C"/>
<path fill-rule="evenodd" clip-rule="evenodd" d="M11.1928 6.85515C11.1928 8.34096 9.98746 9.54796 8.50166 9.54796C7.01586 9.54796 5.81055 8.34096 5.81055 6.85515C5.81055 5.36936 7.01586 4.16406 8.50166 4.16406C9.98746 4.16406 11.1928 5.36936 11.1928 6.85515Z" fill="#0F7B6C"/>
<path fill-rule="evenodd" clip-rule="evenodd" d="M12.7487 12.6169C11.6726 13.727 10.1664 14.4155 8.50044 14.4155C6.83443 14.4155 5.32825 13.727 4.25214 12.6169C4.08214 12.4435 4.05155 12.1783 4.17394 11.9692C4.82844 10.8574 6.03884 10.1094 7.42432 10.1094H9.57655C10.962 10.1094 12.1724 10.8574 12.8269 11.9692C12.9493 12.1783 12.9187 12.4435 12.7487 12.6169Z" fill="#0F7B6C"/>
</g>
<defs>
<clipPath id="clip0_2864_11790">
<rect width="17" height="17" fill="white"/>
</clipPath>
</defs>
</svg>
